<svg viewBox="0 0 1080 1080" xmlns="http://www.w3.org/2000/svg" xml:space="preserve" style="fill-rule:evenodd;clip-rule:evenodd;stroke-linecap:round;stroke-linejoin:round;stroke-miterlimit:1.5"><path d="M824.791 476.504c-5.438 111.594-63.712 209.41-150.312 268.939-55.811 38.365-123.387 60.827-196.169 60.827-72.781 0-140.357-22.462-196.168-60.827-86.601-59.529-144.874-157.345-150.312-268.939h692.961z" style="fill:#ececec" transform="translate(-18.424 3.685) scale(1.16749)"/><path d="M135.486 520C145.926 305.749 323.18 135 540 135c216.82 0 394.074 170.749 404.514 385H135.486z" style="fill:#d21e3d"/><path d="M135.486 560a410.749 410.749 0 0 1 0-40h809.028a410.749 410.749 0 0 1 0 40H135.486z" style="fill:#111;stroke:#000;stroke-width:1.06px"/><circle cx="484.336" cy="517.046" r="55.664" style="fill:#ececec;stroke:#111;stroke-width:21.99px" transform="translate(-340.979 -400.477) scale(1.81894)"/><path d="M615 141.944C796.384 175.964 935.307 331.068 944.514 520a410.749 410.749 0 0 1 0 40c-6.349 130.286-74.383 244.485-175.488 313.985-45.511 31.284-97.723 53.511-154.026 64.071C735.923 904.036 828.538 748.932 834.676 560a616.717 616.717 0 0 0 0-40C828.538 331.068 735.923 175.964 615 141.944z" style="fill:#111;fill-opacity:.25"/></svg>