<?xml version="1.0" encoding="UTF-8" standalone="no"?>
<!DOCTYPE svg PUBLIC "-//W3C//DTD SVG 1.1//EN" "http://www.w3.org/Graphics/SVG/1.1/DTD/svg11.dtd">
<svg width="100%" height="100%" viewBox="0 0 1080 1080" version="1.1" xmlns="http://www.w3.org/2000/svg" xmlns:xlink="http://www.w3.org/1999/xlink" xml:space="preserve" xmlns:serif="http://www.serif.com/" style="fill-rule:evenodd;clip-rule:evenodd;stroke-linecap:round;stroke-linejoin:round;stroke-miterlimit:1.5;">
    <g>
        <g transform="matrix(1.16749,0,0,1.16749,-18.4243,3.68486)">
            <path d="M824.791,476.504C819.353,588.098 761.079,685.914 674.479,745.443C618.668,783.808 551.092,806.27 478.31,806.27C405.529,806.27 337.953,783.808 282.142,745.443C195.541,685.914 137.268,588.098 131.83,476.504L824.791,476.504Z" style="fill:rgb(236,236,236);"/>
        </g>
        <path d="M135.486,520C145.926,305.749 323.18,135 540,135C756.82,135 934.074,305.749 944.514,520L135.486,520Z" style="fill:rgb(210,30,61);"/>
        <path d="M135.486,560C135.163,553.374 135,546.706 135,540C135,533.294 135.163,526.626 135.486,520L944.514,520C944.837,526.626 945,533.294 945,540C945,546.706 944.837,553.374 944.514,560L135.486,560Z" style="fill:rgb(17,17,17);stroke:black;stroke-width:1.06px;"/>
        <g transform="matrix(1.81894,0,0,1.81894,-340.979,-400.477)">
            <circle cx="484.336" cy="517.046" r="55.664" style="fill:rgb(236,236,236);stroke:rgb(17,17,17);stroke-width:21.99px;"/>
        </g>
    </g>
    <path d="M615,141.944C796.384,175.964 935.307,331.068 944.514,520C944.837,526.626 945,533.294 945,540C945,546.706 944.837,553.374 944.514,560C938.165,690.286 870.131,804.485 769.026,873.985C723.515,905.269 671.303,927.496 615,938.056C735.923,904.036 828.538,748.932 834.676,560C834.891,553.374 835,546.706 835,540C835,533.294 834.891,526.626 834.676,520C828.538,331.068 735.923,175.964 615,141.944Z" style="fill:rgb(17,17,17);fill-opacity:0.25;"/>
</svg>
